<?xml version="1.0" encoding="UTF-8" standalone="no"?>
<svg
   xmlns:dc="http://purl.org/dc/elements/1.1/"
   xmlns:cc="http://creativecommons.org/ns#"
   xmlns:rdf="http://www.w3.org/1999/02/22-rdf-syntax-ns#"
   xmlns:svg="http://www.w3.org/2000/svg"
   xmlns="http://www.w3.org/2000/svg"
   xmlns:sodipodi="http://sodipodi.sourceforge.net/DTD/sodipodi-0.dtd"
   xmlns:inkscape="http://www.inkscape.org/namespaces/inkscape"
   version="1.1"
   id="svg2"
   xml:space="preserve"
   width="80"
   height="80"
   viewBox="0 0 800 800"
   sodipodi:docname="b-dark.ai"><metadata
     id="metadata8"><rdf:RDF><cc:Work
         rdf:about=""><dc:format>image/svg+xml</dc:format><dc:type
           rdf:resource="http://purl.org/dc/dcmitype/StillImage" /></cc:Work></rdf:RDF></metadata><defs
     id="defs6"><clipPath
       clipPathUnits="userSpaceOnUse"
       id="clipPath20"><path
         d="M 0,600 H 600 V 0 H 0 Z"
         id="path18" /></clipPath></defs><sodipodi:namedview
     pagecolor="#ffffff"
     bordercolor="#666666"
     borderopacity="1"
     objecttolerance="10"
     gridtolerance="10"
     guidetolerance="10"
     inkscape:pageopacity="0"
     inkscape:pageshadow="2"
     inkscape:window-width="640"
     inkscape:window-height="480"
     id="namedview4" /><g
     id="g10"
     inkscape:groupmode="layer"
     inkscape:label="b-dark"
     transform="matrix(1.3333333,0,0,-1.3333333,0,800)"><path
       d="M 0,0 H 598 V 600 H 0 Z"
       style="fill:#0062ff;fill-opacity:1;fill-rule:nonzero;stroke:none"
       id="path12" /><g
       id="g14"><g
         id="g16"
         clip-path="url(#clipPath20)"><g
           id="g22"
           transform="translate(382.0157,399.0482)"><path
             d="M 0,0 C 66.161,0 119.802,-63.407 119.802,-141.616 119.802,-219.818 66.161,-283.229 0,-283.229 h -149.143 c -13.191,0 -23.981,12.761 -23.981,28.347 0,15.591 10.79,28.352 23.981,28.352 h 29.333 c 0.154,0 0.302,0 0.454,0.006 h 0.113 c 0.146,0.006 0.292,0.012 0.441,0.024 h 0.005 0.013 c 0.156,0.012 0.313,0.024 0.466,0.036 l 0.045,0.006 c 0.321,0.029 0.639,0.065 0.951,0.113 l 0.043,0.006 0.426,0.071 0.04,0.007 0.038,0.006 0.389,0.077 0.131,0.03 0.34,0.077 0.07,0.018 0.051,0.012 0.378,0.096 0.118,0.035 0.313,0.09 0.144,0.041 0.38,0.125 0.106,0.036 0.376,0.131 0.03,0.012 0.406,0.155 0.119,0.048 0.337,0.143 0.068,0.03 0.411,0.185 0.048,0.023 0.376,0.179 0.063,0.036 0.365,0.184 0.048,0.03 0.043,0.024 0.366,0.203 0.043,0.024 0.376,0.221 0.035,0.023 0.045,0.024 0.343,0.214 0.063,0.043 c 0.26,0.166 0.519,0.345 0.774,0.524 l 0.045,0.036 0.368,0.268 0.015,0.017 c 0.129,0.096 0.258,0.198 0.384,0.299 l 0.022,0.018 c 0.124,0.095 0.245,0.196 0.366,0.297 l 0.013,0.013 h 0.002 l 0.023,0.017 0.343,0.298 0.04,0.036 0.323,0.292 0.032,0.03 0.006,0.006 0.01,0.012 c 0.108,0.101 0.214,0.203 0.317,0.304 l 0.073,0.071 c 0.109,0.108 0.217,0.215 0.325,0.322 l 0.018,0.018 0.328,0.346 0.023,0.024 0.32,0.351 0.013,0.018 0.025,0.024 0.307,0.357 0.018,0.019 c 0.214,0.256 0.424,0.518 0.628,0.78 l 0.04,0.054 0.267,0.351 0.033,0.048 0.272,0.382 0.071,0.101 0.212,0.31 0.055,0.077 c 0.088,0.138 0.174,0.268 0.262,0.406 l 0.033,0.053 0.239,0.388 0.031,0.054 0.249,0.423 0.041,0.071 0.227,0.405 0.01,0.018 0.227,0.43 0.075,0.142 0.149,0.298 0.063,0.131 0.033,0.066 h -0.003 c 1.637,3.391 2.574,7.307 2.574,11.473 0,10.973 -6.494,20.235 -15.162,22.691 l -0.06,0.017 -0.066,0.019 h -0.005 l -0.015,0.005 -0.391,0.101 -0.07,0.019 h -0.003 l -0.065,0.017 -0.343,0.078 -0.07,0.018 h -0.003 c -0.159,0.029 -0.318,0.065 -0.479,0.089 h -0.005 -0.003 l -0.012,0.006 c -0.157,0.03 -0.318,0.053 -0.477,0.078 h -0.003 c -0.163,0.024 -0.327,0.047 -0.491,0.065 h -0.003 c -0.163,0.024 -0.33,0.042 -0.494,0.054 h -0.002 c -0.167,0.018 -0.333,0.03 -0.499,0.041 h -0.003 l -0.318,0.013 -0.184,0.011 h -0.002 c -0.169,0 -0.338,0.006 -0.509,0.006 h -109.396 c -13.19,0 -23.981,12.755 -23.981,28.347 0,15.591 10.791,28.346 23.981,28.346 h 109.396 0.005 c 10.853,0.006 19.732,10.502 19.732,23.328 0,12.826 -8.879,23.322 -19.732,23.325 h -0.005 -55.588 c -13.19,0 -23.981,12.758 -23.981,28.349 0,15.589 10.791,28.347 23.981,28.347 h 55.593 v 74.654 c 0,16.673 11.541,30.316 25.649,30.316 14.106,0 25.647,-13.643 25.647,-30.316 v -80.25 C -49.093,-9.405 -25.476,0 0,0 m -218.542,-48.185 v 0 c 0,15.589 -10.79,28.347 -23.98,28.347 h -21.331 c -13.188,0 -23.981,-12.758 -23.981,-28.347 0,-15.591 10.793,-28.349 23.981,-28.349 h 21.331 c 13.19,0 23.98,12.758 23.98,28.349 m 149.978,-96.875 h 0.055 v 8.183 c 2.078,42.594 31.956,76.385 68.509,76.385 37.9,0 68.627,-36.321 68.627,-81.124 0,-44.796 -30.727,-81.117 -68.627,-81.117 -36.922,0 -67.031,34.474 -68.564,77.673 m -51.246,-34.82 h 0.075 l 0.434,-0.006 m 0.002,0 c 0.167,-0.006 0.336,-0.011 0.502,-0.024 m 0.003,0 c 0.166,-0.011 0.332,-0.023 0.499,-0.041 m 0.002,0 c 0.164,-0.012 0.331,-0.03 0.494,-0.054 m 0.003,0 c 0.164,-0.018 0.328,-0.041 0.491,-0.065 m 0.003,0 c 0.159,-0.025 0.32,-0.048 0.477,-0.078 m 0.02,-0.006 c 0.161,-0.024 0.32,-0.06 0.479,-0.089 m 1.031,-0.257 0.068,-0.017"
             style="fill:#ffffff;fill-opacity:1;fill-rule:evenodd;stroke:none"
             id="path24" /></g></g></g></g></svg>
