<?xml version="1.0" encoding="UTF-8" standalone="no"?>
<svg
   xmlns:dc="http://purl.org/dc/elements/1.1/"
   xmlns:cc="http://creativecommons.org/ns#"
   xmlns:rdf="http://www.w3.org/1999/02/22-rdf-syntax-ns#"
   xmlns:svg="http://www.w3.org/2000/svg"
   xmlns="http://www.w3.org/2000/svg"
   xmlns:sodipodi="http://sodipodi.sourceforge.net/DTD/sodipodi-0.dtd"
   xmlns:inkscape="http://www.inkscape.org/namespaces/inkscape"
   version="1.1"
   id="svg2"
   xml:space="preserve"
   width="100"
   height="100"
   viewBox="0 0 800 800"
   sodipodi:docname="b.ai"><metadata
     id="metadata8"><rdf:RDF><cc:Work
         rdf:about=""><dc:format>image/svg+xml</dc:format><dc:type
           rdf:resource="http://purl.org/dc/dcmitype/StillImage" /></cc:Work></rdf:RDF></metadata><defs
     id="defs6"><clipPath
       clipPathUnits="userSpaceOnUse"
       id="clipPath18"><path
         d="M 0,600 H 600 V 0 H 0 Z"
         id="path16" /></clipPath></defs><sodipodi:namedview
     pagecolor="#ffffff"
     bordercolor="#666666"
     borderopacity="1"
     objecttolerance="10"
     gridtolerance="10"
     guidetolerance="10"
     inkscape:pageopacity="0"
     inkscape:pageshadow="2"
     inkscape:window-width="640"
     inkscape:window-height="480"
     id="namedview4" /><g
     id="g10"
     inkscape:groupmode="layer"
     inkscape:label="b"
     transform="matrix(1.3333333,0,0,-1.3333333,0,800)"><g
       id="g12"><g
         id="g14"
         clip-path="url(#clipPath18)"><g
           id="g20"
           transform="translate(418.3701,418.5233)"><path
             d="m 0,0 c 93.698,0 169.667,-75.866 169.667,-169.443 0,-93.569 -75.969,-169.44 -169.667,-169.44 h -211.22 c -18.681,0 -33.962,15.268 -33.962,33.917 0,18.655 15.281,33.923 33.962,33.923 h 41.542 c 0.218,0 0.429,0 0.643,0.007 h 0.16 c 0.208,0.008 0.415,0.015 0.625,0.029 h 0.008 0.017 c 0.222,0.014 0.443,0.028 0.661,0.043 l 0.064,0.007 c 0.453,0.035 0.904,0.078 1.346,0.135 l 0.061,0.008 0.603,0.085 0.057,0.007 0.054,0.008 0.55,0.092 0.186,0.035 0.482,0.093 0.099,0.022 0.072,0.014 0.536,0.115 0.167,0.042 0.443,0.107 0.204,0.05 0.538,0.15 0.15,0.043 0.533,0.156 0.042,0.015 0.575,0.185 0.168,0.057 0.478,0.171 0.097,0.036 0.582,0.221 0.068,0.028 0.531,0.214 0.09,0.044 0.517,0.22 0.068,0.036 0.061,0.028 0.518,0.243 0.06,0.028 0.533,0.265 0.05,0.028 0.064,0.029 0.485,0.256 0.09,0.05 c 0.367,0.2 0.735,0.414 1.096,0.628 l 0.064,0.043 0.521,0.32 0.022,0.021 c 0.182,0.115 0.364,0.236 0.542,0.357 l 0.032,0.022 c 0.176,0.114 0.347,0.235 0.518,0.356 l 0.018,0.015 h 0.004 l 0.032,0.021 0.486,0.356 0.057,0.043 0.457,0.349 0.046,0.036 0.007,0.007 0.015,0.015 c 0.153,0.121 0.303,0.242 0.449,0.364 l 0.104,0.085 c 0.153,0.129 0.307,0.256 0.46,0.385 l 0.025,0.021 0.464,0.414 0.033,0.029 0.453,0.42 0.018,0.021 0.036,0.029 0.435,0.428 0.025,0.022 c 0.303,0.306 0.6,0.62 0.889,0.934 l 0.057,0.064 0.379,0.421 0.046,0.057 0.386,0.456 0.1,0.121 0.3,0.371 0.078,0.093 c 0.125,0.164 0.247,0.32 0.372,0.485 l 0.046,0.064 0.339,0.464 0.043,0.064 0.354,0.506 0.057,0.085 0.321,0.485 0.014,0.022 0.322,0.514 0.107,0.171 0.21,0.356 0.089,0.157 0.047,0.079 h -0.003 c 2.317,4.057 3.645,8.742 3.645,13.727 0,13.129 -9.198,24.211 -21.473,27.149 l -0.085,0.021 -0.093,0.022 h -0.007 l -0.022,0.007 -0.553,0.121 -0.1,0.022 h -0.004 l -0.092,0.021 -0.486,0.093 -0.1,0.021 h -0.003 c -0.226,0.036 -0.45,0.079 -0.679,0.107 h -0.007 -0.004 l -0.018,0.007 c -0.221,0.036 -0.449,0.064 -0.674,0.093 h -0.004 c -0.232,0.029 -0.464,0.057 -0.696,0.078 h -0.004 c -0.232,0.029 -0.467,0.05 -0.7,0.065 h -0.003 c -0.236,0.021 -0.471,0.035 -0.707,0.049 h -0.003 l -0.451,0.015 -0.26,0.014 h -0.004 c -0.239,0 -0.478,0.007 -0.721,0.007 h -154.928 c -18.68,0 -33.962,15.261 -33.962,33.916 0,18.656 15.282,33.917 33.962,33.917 h 154.928 0.008 c 15.37,0.007 27.945,12.566 27.945,27.912 0,15.347 -12.575,27.905 -27.945,27.908 h -0.008 -78.724 c -18.681,0 -33.963,15.265 -33.963,33.92 0,18.652 15.282,33.917 33.963,33.917 h 78.732 v 89.323 c 0,19.95 16.345,36.274 36.325,36.274 19.977,0 36.322,-16.324 36.322,-36.274 V -30.432 C -69.527,-11.253 -36.079,0 0,0 m -309.503,-57.653 v 0 c 0,18.652 -15.281,33.917 -33.962,33.917 h -30.21 c -18.677,0 -33.961,-15.265 -33.961,-33.917 0,-18.655 15.284,-33.92 33.961,-33.92 h 30.21 c 18.681,0 33.962,15.265 33.962,33.92 m 212.401,-115.912 h 0.079 v 9.791 c 2.942,50.964 45.255,91.395 97.023,91.395 53.674,0 97.191,-43.458 97.191,-97.064 0,-53.599 -43.517,-97.057 -97.191,-97.057 -52.289,0 -94.931,41.248 -97.102,92.935 m -72.576,-41.661 h 0.107 l 0.614,-0.007 m 0.004,0 c 0.235,-0.008 0.474,-0.014 0.711,-0.029 m 0.003,0 c 0.236,-0.014 0.471,-0.028 0.707,-0.049 m 0.003,0 c 0.233,-0.015 0.468,-0.036 0.7,-0.065 m 0.004,0 c 0.232,-0.021 0.464,-0.049 0.696,-0.078 m 0.004,0 c 0.225,-0.029 0.453,-0.057 0.674,-0.093 m 0.029,-0.007 c 0.229,-0.028 0.453,-0.071 0.679,-0.107 m 1.46,-0.307 0.096,-0.021"
             style="fill:#0062ff;fill-opacity:1;fill-rule:evenodd;stroke:none"
             id="path22" /></g></g></g></g></svg>
