<?xml version="1.0"?>
<svg xmlns="http://www.w3.org/2000/svg" xmlns:xlink="http://www.w3.org/1999/xlink" xmlns:svgjs="http://svgjs.com/svgjs" version="1.1" width="50" height="50" x="0" y="0" viewBox="0 0 512 512" style="enable-background:new 0 0 512 512" xml:space="preserve" class=""><g><g xmlns="http://www.w3.org/2000/svg"><path d="m496.474 482h-14.997v-322.853c18.281-10.976 30.523-30.869 30.523-53.541 0-10.442-2.654-20.784-7.674-29.906l-33.82-67.406c-2.54-5.083-7.733-8.294-13.415-8.294h-400.083c-5.546 0-10.639 3.061-13.242 7.959l-36.932 69.652c-4.366 8.639-6.671 18.284-6.671 27.995 0 22.383 11.938 42.047 29.832 53.107v323.287h-14.997c-8.283 0-14.998 6.716-14.998 15s6.715 15 14.998 15h481.477c8.283 0 14.997-6.716 14.997-15s-6.715-15-14.998-15zm-430.454-452h381.8l31.076 61.826c2.061 4.308 3.109 8.933 3.109 13.78 0 17.957-14.887 32.566-33.187 32.566s-33.187-14.609-33.187-32.566c0-8.284-6.715-15-14.997-15-8.283 0-14.997 6.716-14.997 15 0 17.957-14.887 32.566-33.186 32.566-18.3 0-33.187-14.609-33.187-32.566 0-8.284-6.715-15-14.997-15-8.283 0-14.997 6.716-14.997 15 0 17.957-14.887 32.566-33.187 32.566-18.299 0-33.187-14.609-33.187-32.566 0-8.284-6.715-15-14.997-15-8.283 0-14.997 6.716-14.997 15 0 17.957-14.888 32.566-33.187 32.566s-33.186-14.609-33.186-32.566c0-8.284-6.715-15-14.997-15s-14.997 6.716-14.997 15c0 17.957-14.888 32.566-33.187 32.566s-33.187-14.609-33.187-32.566c0-5.356 1.277-10.452 3.796-15.145zm-6.03 138.083c1.111.058 2.229.09 3.354.09 19.288 0 36.586-8.604 48.184-22.138 11.599 13.535 28.896 22.138 48.184 22.138s36.586-8.604 48.184-22.139c11.599 13.535 28.896 22.139 48.184 22.139 19.289 0 36.586-8.604 48.184-22.139 11.599 13.535 28.896 22.139 48.184 22.139s36.585-8.604 48.183-22.138c11.599 13.535 28.896 22.138 48.184 22.138.893 0 1.779-.03 2.664-.067v313.894h-391.489z" fill="#2e66ed" data-original="#000000" style="" class=""/><path d="m381.127 265.853c-.339-.34-.695-.663-1.065-.968-2.913-2.401-5.986-4.576-9.185-6.528l3.043-13.173c2.764-12.001-.966-24.548-9.978-33.562-9.012-9.013-21.555-12.743-33.56-9.979l-13.139 3.031c-1.96-3.188-4.147-6.255-6.554-9.175-3.001-3.639-6.93-6.701-11.378-8.304-5.386-1.941-11.445-1.861-16.776.226-3.051 1.194-5.835 3.033-8.151 5.349l-53.355 53.363c-26.269 26.273-29.447 67.011-9.541 96.755l-84.81 84.824c-5.857 5.858-5.857 15.355 0 21.213 2.928 2.929 6.766 4.393 10.605 4.393 3.838 0 7.676-1.464 10.605-4.393l9.011-9.013c1.425 2.734 3.161 5.303 5.211 7.648 5.475 6.263 15.741 13.978 33.552 15.161.861.057 1.717.085 2.576.085 25.195 0 49.243-23.901 53.939-28.839 4.976-5.232 5.518-13.268 1.291-19.121-.244-.337-6.067-8.358-14.687-16.525-8.113-7.688-16.142-13.133-23.998-16.303l18.011-18.014c13.424 8.382 28.202 12.739 43.186 12.739 2.092 0 4.188-.085 6.285-.255 17.976-1.46 34.287-9.042 47.171-21.928l53.354-53.363c7.154-7.154 8.948-18.608 4.395-27.632-1.509-2.993-3.709-5.362-6.058-7.712zm-183.478 166.935c-5.895-.392-10.497-2.158-12.959-4.974-1.796-2.054-2.593-4.774-2.369-8.083.349-5.155 3.222-11.073 14.571-11.073.768 0 1.575.027 2.421.083 5.992.398 14.217 6.638 21.028 13.474-7.685 5.876-16.702 10.98-22.692 10.573zm139.47-201.911c2.761-.638 4.993 1.338 5.613 1.958s2.593 2.857 1.958 5.614l-2.125 9.196c-4.361-.785-8.793-1.222-13.248-1.306-.067-4.51-.492-8.979-1.282-13.367zm-94.881 36.47 48.482-48.49c1.706 2.555 3.16 5.219 4.364 7.958.186.539.406 1.057.646 1.561 3.875 9.668 4.692 20.184 2.52 30.183-.215.685-.387 1.384-.503 2.099-2.274 8.702-6.837 16.932-13.66 23.756l-45.179 45.186c-14.795-18.268-13.68-45.241 3.33-62.253zm65.989 65.999c-11.483 11.485-27.293 15.656-42.812 12.169l39.882-39.889c8.37-8.371 14.729-18.331 18.805-29.187 11.534-.806 23.074 2.156 32.594 8.43z" fill="#2e66ed" data-original="#000000" style="" class=""/></g></g></svg>
