<?xml version="1.0"?>
<svg xmlns="http://www.w3.org/2000/svg" xmlns:xlink="http://www.w3.org/1999/xlink" xmlns:svgjs="http://svgjs.com/svgjs" version="1.1" width="50" height="50" x="0" y="0" viewBox="0 0 512.029 512.029" style="enable-background:new 0 0 512 512" xml:space="preserve" class=""><g><g xmlns="http://www.w3.org/2000/svg"><path d="m473.397 175.161c19.141-19.14 32.214-42.341 36.812-65.33 5.039-25.193-.47-47.351-15.51-62.391-15.041-15.041-37.198-20.55-62.391-15.51-22.989 4.598-46.19 17.671-65.33 36.812l-64.612 64.612c-9.16-5.503-19.369-9.43-30.253-11.398 5.326-18.286 22.226-31.691 42.209-31.691v-30c-36.51 0-66.906 26.597-72.881 61.429-3.627.59-7.183 1.396-10.653 2.406-2.399-5.603-5.189-11.054-8.41-16.288-10.449-16.976-24.769-31.139-41.754-41.383v-66.415h-90.25v66.349c-16.951 10.089-31.254 24.103-41.709 40.952-12.13 19.548-18.541 42.039-18.541 65.044v68.655h-30.124v90.25h22.774l8 180.75h450.451l8-180.75h22.775v-90.25h-104.456zm-92.462-77.949 49.772 21.906 12.086-27.458-36.975-16.273c10.45-7.028 21.513-11.867 32.374-14.039 9.999-2.16 25.773-2.129 35.294 7.306 10.415 10.415 9.048 26.584 7.306 35.294-3.449 17.245-13.608 35.002-28.607 50.001l-87.066 87.066h-24.006c3.361-9.445 5.201-19.604 5.201-30.188 0-22.024-7.928-42.228-21.075-57.918l13.094-13.094 49.772 21.906 12.086-27.458-39.098-17.208zm-177.111 143.802c-5.164-8.884-8.136-19.191-8.136-30.188 0-33.257 27.056-60.312 60.312-60.312s60.312 27.056 60.312 60.312c0 10.996-2.972 21.304-8.136 30.188zm-53.199-211v30.25h-30.25v-30.25zm-41.602 60.25h52.881c19.301 10.613 33.872 27.232 41.908 46.893-15.057 10.698-26.703 25.893-32.974 43.607h-110.713v-8.405c0-34.6 18.649-65.75 48.898-82.095zm-48.898 120.5h105.563c0 .021-.001.042-.001.062 0 10.584 1.84 20.743 5.201 30.188h-110.763zm392.399 271.25h-393.048l-6.672-150.75h406.393zm29.476-180.75h-452v-30.25h452z" fill="#2e66ed" data-original="#000000" style="" class=""/><path d="m180.75 361.514h150.5v30h-150.5z" fill="#2e66ed" data-original="#000000" style="" class=""/></g></g></svg>
